<mxfile host="app.diagrams.net" modified="2020-10-08T05:33:36.155Z" agent="5.0 (Windows)" etag="DobM4J2e671gcOCqu1T_" version="13.7.7" type="github">
  <diagram id="_szakLdNq5qnH-L1orJf" name="Page-1">
    <mxGraphModel dx="910" dy="487" grid="1" gridSize="10" guides="1" tooltips="1" connect="1" arrows="1" fold="1" page="1" pageScale="1" pageWidth="1169" pageHeight="827" math="0" shadow="0">
      <root>
        <mxCell id="0" />
        <mxCell id="1" parent="0" />
        <mxCell id="P9pWn6IIgYA2IMd_rocV-1" value="Customer feedback Survey" style="swimlane;html=1;childLayout=stackLayout;resizeParent=1;resizeParentMax=0;horizontal=1;startSize=20;horizontalStack=0;" vertex="1" parent="1">
          <mxGeometry x="10" y="20" width="1150" height="570" as="geometry" />
        </mxCell>
        <mxCell id="P9pWn6IIgYA2IMd_rocV-2" value="Clerk/PCO/CCO" style="swimlane;html=1;startSize=20;horizontal=0;" vertex="1" parent="P9pWn6IIgYA2IMd_rocV-1">
          <mxGeometry y="20" width="1150" height="190" as="geometry" />
        </mxCell>
        <mxCell id="P9pWn6IIgYA2IMd_rocV-3" value="Office of the Clerk/PCO" style="swimlane;html=1;startSize=20;horizontal=0;" vertex="1" parent="P9pWn6IIgYA2IMd_rocV-1">
          <mxGeometry y="210" width="1150" height="120" as="geometry" />
        </mxCell>
        <mxCell id="P9pWn6IIgYA2IMd_rocV-4" value="PCO" style="swimlane;html=1;startSize=20;horizontal=0;" vertex="1" parent="P9pWn6IIgYA2IMd_rocV-1">
          <mxGeometry y="330" width="1150" height="120" as="geometry" />
        </mxCell>
        <mxCell id="P9pWn6IIgYA2IMd_rocV-5" value="Clerk/PCO" style="swimlane;html=1;startSize=20;horizontal=0;" vertex="1" parent="P9pWn6IIgYA2IMd_rocV-1">
          <mxGeometry y="450" width="1150" height="120" as="geometry" />
        </mxCell>
      </root>
    </mxGraphModel>
  </diagram>
</mxfile>
